:FULLY-SPECIFIED
:FORCE-ALL-JOINTS-BE-3DOF
:DEGREES
2854
root -6.07942 13.2709 -28.797 161.008 -66.9026 -159.284
lfemur -65.9449 45.1699 -6.06296
ltibia 77.2544 -0 0
lfoot -4.79463 -6.41991 0.00182674
ltoes -28.5469 0 0
rfemur -31.2877 -19.2058 22.2289
rtibia 88.9531 -0 0
rfoot -40.9853 -29.0971 -0.00362993
rtoes -14.0229 0 0
lowerback 15.6043 5.61957 1.02731
upperback -4.51293 7.98942 1.64461
thorax -13.9219 3.69419 -0.920476
lowerneck -2.55175 9.62999 2.1998
upperneck 9.16856 12.5402 2.07488
head 3.41418 6.33354 0.772231
lclavicle -2.86498e-14 -1.43125e-14 0
lhumerus 5.41522 12.3058 84.3306
lradius 93.4913 -0 0
lwrist -19.0144 0 0
lhand -39.5092 28.4734 0.00117922
lfingers 7.12502 -0 0
lthumb -12.4946 58.0798 0.00111742
rclavicle -2.86498e-14 -1.43125e-14 0
rhumerus -59.2197 51.1258 -111.621
rradius 113.567 -0 0
rwrist -83.7672 0 0
rhand 7.96328 -26.2799 0.000123304
rfingers 7.12502 -0 0
rthumb 33.1922 -53.2402 -0.000158861
2855
root -6.08047 13.2681 -28.7961 160.963 -66.908 -159.223
lfemur -65.9877 45.1589 -6.05797
ltibia 77.2828 -0 0
lfoot -4.82129 -6.42807 0.00182956
ltoes -28.5986 0 0
rfemur -31.3106 -19.1974 22.2564
rtibia 88.9727 -0 0
rfoot -40.9698 -29.1454 -0.00342179
rtoes -14.0428 0 0
lowerback 15.6211 5.61482 1.05421
upperback -4.51794 7.98972 1.64887
thorax -13.9348 3.69166 -0.93256
lowerneck -2.5564 9.63127 2.20055
upperneck 9.16969 12.5412 2.07578
head 3.41525 6.33415 0.772742
lclavicle -2.86498e-14 -1.43125e-14 0
lhumerus 5.42401 12.31 84.3314
lradius 93.4857 -0 0
lwrist -19.0072 0 0
lhand -39.506 28.4809 0.00120188
lfingers 7.12502 -0 0
lthumb -12.4916 58.0875 0.00113868
rclavicle -2.86498e-14 -1.43125e-14 0
rhumerus -59.2192 51.1404 -111.618
rradius 113.565 -0 0
rwrist -83.7475 0 0
rhand 7.96676 -26.2715 0.000117942
rfingers 7.12502 -0 0
rthumb 33.1955 -53.2309 -0.000142234
2856
root -6.08153 13.2653 -28.7952 160.919 -66.9129 -159.163
lfemur -66.0296 45.1479 -6.05306
ltibia 77.3106 -0 0
lfoot -4.84828 -6.43522 0.00182055
ltoes -28.6519 0 0
rfemur -31.3335 -19.189 22.2834
rtibia 88.9918 -0 0
rfoot -40.9544 -29.1925 -0.00319472
rtoes -14.062 0 0
lowerback 15.6379 5.61016 1.08068
upperback -4.52293 7.99003 1.65302
thorax -13.9477 3.68917 -0.944536
lowerneck -2.56102 9.63249 2.20128
upperneck 9.17073 12.5421 2.07663
head 3.42546 6.33818 0.777173
lclavicle -2.86498e-14 -1.43125e-14 0
lhumerus 5.43235 12.3143 84.332
lradius 93.4793 -0 0
lwrist -19.0001 0 0
lhand -39.5033 28.4893 0.00121584
lfingers 7.12502 -0 0
lthumb -12.4889 58.0961 0.0011517
rclavicle -2.86498e-14 -1.43125e-14 0
rhumerus -59.2185 51.1547 -111.615
rradius 113.563 -0 0
rwrist -83.7281 0 0
rhand 7.96991 -26.2629 0.000112394
rfingers 7.12502 -0 0
rthumb 33.1985 -53.2216 -0.000125083
2857
root -6.08258 13.2625 -28.7944 160.877 -66.9175 -159.105
lfemur -66.0706 45.1369 -6.04824
ltibia 77.3376 -0 0
lfoot -4.87559 -6.44135 0.00179926
ltoes -28.7067 0 0
rfemur -31.3564 -19.1805 22.3099
rtibia 89.0105 -0 0
rfoot -40.939 -29.2384 -0.0029517
rtoes -14.0802 0 0
lowerback 15.6545 5.6056 1.10668
upperback -4.52787 7.99037 1.65704
thorax -13.9605 3.68672 -0.95638
lowerneck -2.5656 9.63363 2.20198
upperneck 9.17521 12.5498 2.08291
head 3.42546 6.33818 0.777173
lclavicle -2.86498e-14 -1.43125e-14 0
lhumerus 5.44026 12.3188 84.3325
lradius 93.4721 -0 0
lwrist -18.9933 0 0
lhand -39.5009 28.4987 0.00122038
lfingers 7.12502 -0 0
lthumb -12.4866 58.1056 0.0011558
rclavicle -2.86498e-14 -1.43125e-14 0
rhumerus -59.2177 51.1686 -111.611
rradius 113.571 -0 0
rwrist -83.7089 0 0
rhand 7.97279 -26.2541 0.000106695
rfingers 7.12502 -0 0
rthumb 33.2012 -53.2122 -0.000107645
2858
root -6.08364 13.2597 -28.7935 160.835 -66.9217 -159.049
lfemur -66.1107 45.1261 -6.04356
ltibia 77.364 -0 0
lfoot -4.9032 -6.44647 0.00176525
ltoes -28.763 0 0
rfemur -31.3793 -19.1721 22.3357
rtibia 89.0288 -0 0
rfoot -40.9239 -29.2829 -0.00269596
rtoes -14.0974 0 0
lowerback 15.6709 5.60116 1.13211
upperback -4.53275 7.99074 1.66091
thorax -13.9732 3.68433 -0.968071
lowerneck -2.57014 9.6347 2.20265
upperneck 9.17581 12.5494 2.08287
head 3.42546 6.33818 0.777173
lclavicle -2.86498e-14 -1.43125e-14 0
lhumerus 5.44777 12.3236 84.3328
lradius 93.464 -0 0
lwrist -18.9867 0 0
lhand -39.4991 28.5091 0.00121479
lfingers 7.12502 -0 0
lthumb -12.4849 58.1162 0.00115032
rclavicle -2.86498e-14 -1.43125e-14 0
rhumerus -59.2168 51.1822 -111.608
rradius 113.569 -0 0
rwrist -83.6899 0 0
rhand 7.97543 -26.2452 0.000100869
rfingers 7.12502 -0 0
rthumb 33.2037 -53.2027 -9.01698e-05
2859
root -6.0847 13.2569 -28.7926 160.796 -66.9255 -158.993
lfemur -66.1499 45.1154 -6.03902
ltibia 77.3897 -0 0
lfoot -4.93108 -6.45056 0.00171811
ltoes -28.8207 0 0
rfemur -31.4021 -19.1636 22.3609
rtibia 89.0467 -0 0
rfoot -40.9091 -29.3259 -0.00243093
rtoes -14.1134 0 0
lowerback 15.6872 5.59684 1.15692
upperback -4.53757 7.99113 1.66461
thorax -13.9857 3.68201 -0.979587
lowerneck -2.57461 9.63567 2.20328
upperneck 9.1764 12.549 2.08283
head 3.42546 6.33818 0.777173
lclavicle -2.86498e-14 -1.43125e-14 0
lhumerus 5.4549 12.3286 84.333
lradius 93.4551 -0 0
lwrist -18.9804 0 0
lhand -39.4977 28.5208 0.00119843
lfingers 7.12502 -0 0
lthumb -12.4836 58.1279 0.00113465
rclavicle -2.86498e-14 -1.43125e-14 0
rhumerus -59.2159 51.1955 -111.606
rradius 113.566 -0 0
rwrist -83.6713 0 0
rhand 7.97788 -26.2362 9.49276e-05
rfingers 7.12502 -0 0
rthumb 33.206 -53.1931 -7.29221e-05
2860
root -6.08575 13.2541 -28.7918 160.757 -66.9289 -158.94
lfemur -66.1882 45.1049 -6.03466
ltibia 77.4148 -0 0
lfoot -4.95922 -6.45363 0.00165743
ltoes -28.8796 0 0
rfemur -31.4249 -19.1552 22.3853
rtibia 89.0644 -0 0
rfoot -40.8949 -29.3673 -0.00216029
rtoes -14.1282 0 0
lowerback 15.7032 5.59266 1.18103
upperback -4.5423 7.99154 1.66813
thorax -13.9981 3.67975 -0.990906
lowerneck -2.57901 9.63655 2.20388
upperneck 9.177 12.5486 2.08278
head 3.42546 6.33818 0.777173
lclavicle -2.86498e-14 -1.43125e-14 0
lhumerus 5.46167 12.334 84.333
lradius 93.4453 -0 0
lwrist -18.9744 0 0
lhand -39.497 28.5336 0.00117068
lfingers 7.12502 -0 0
lthumb -12.4828 58.1408 0.00110819
rclavicle -2.86498e-14 -1.43125e-14 0
rhumerus -59.215 51.2083 -111.603
rradius 113.564 -0 0
rwrist -83.653 0 0
rhand 7.9802 -26.227 8.88685e-05
rfingers 7.12502 -0 0
rthumb 33.2082 -53.1834 -5.61801e-05
